PathFileType	4	(X/Y/Z)	Patient4_TMGait_0pt4_02_right_15.trc.trc
DataRate	CameraRate	NumFrames	NumMarkers	Units	OrigDataRate	OrigDataStartFrame	OrigNumFrames
76.502732240437	76.502732240437	5	33	mm	76.502732240437	18	       141
Frame#	Time	Sacral			L.Shoulder			Chest			R.Shoulder			Neck			R.ASIS			L.ASIS			R.Thigh.Superior			R.Thigh.Lateral			R.Thigh.Inferior			R.Patella			L.Thigh.Superior			L.Thigh.Lateral			L.Thigh.Inferior			L.Patella			L.Shank.Superior			L.Shank.Lateral			L.Shank.Inferior			R.Shank.Superior			R.Shank.Lateral			R.Shank.Inferior			R.Heel			R.Midfoot.Superior			R.Midfoot.Lateral			R.Toe			L.Heel			L.Midfoot.Lateral			L.Midfoot.Superior			L.Toe			L.Elbow			L.Wrist			R.Elbow			R.Wrist			
		X1	Y1	Z1	X2	Y2	Z2	X3	Y3	Z3	X4	Y4	Z4	X5	Y5	Z5	X6	Y6	Z6	X7	Y7	Z7	X8	Y8	Z8	X9	Y9	Z9	X10	Y10	Z10	X11	Y11	Z11	X12	Y12	Z12	X13	Y13	Z13	X14	Y14	Z14	X15	Y15	Z15	X16	Y16	Z16	X17	Y17	Z17	X18	Y18	Z18	X19	Y19	Z19	X20	Y20	Z20	X21	Y21	Z21	X22	Y22	Z22	X23	Y23	Z23	X24	Y24	Z24	X25	Y25	Z25	X26	Y26	Z26	X27	Y27	Z27	X28	Y28	Z28	X29	Y29	Z29	X30	Y30	Z30	X31	Y31	Z31	X32	Y32	Z32	X33	Y33	Z33	

18	19.582214285714	831.205482298417	1008.993830335058	428.534849679014	1039.456386021609	1429.056032203303	243.521323519931	1122.114590060609	1366.466758096956	417.252065612333	1022.575885985200	1447.530396913378	578.588768367625	1003.209391362182	1496.378074416920	394.956458898460	1053.556730340468	947.148646069453	560.547246636748	1054.144572307841	963.201846205169	284.699312942591	1116.138935926329	763.012927608859	538.566152025876	1066.340552799944	648.863616095373	619.197932575774	1150.458590921923	600.691651453052	538.998727928136	1179.472385075547	525.020602222320	557.669828132139	1065.916518835503	739.438415142416	312.380044716787	955.340856710971	638.819693946643	247.741668914324	1022.451678736209	549.349462133019	310.534064945299	1010.614845248311	484.227198931255	319.383571354659	982.359078303404	415.768097637018	311.825640959487	885.727695115532	305.346001445398	262.599297507185	934.557331101095	192.615735766516	334.922085164821	1170.538394188831	441.776588108415	573.672708419979	1128.152617364342	328.288627390608	644.343087689458	1203.120204393787	245.426174288335	594.081971892478	1125.626367589149	52.679772507466	576.573071889749	1286.950706547341	134.077558146605	606.867294739656	1214.004673010366	54.705252260646	644.739976142138	1413.924541251524	102.447871066013	624.413364969812	804.087145694589	39.283360480325	383.632639287617	875.768315275532	34.824870868596	300.951928542974	959.792707047070	95.874630941506	325.705880071149	1087.822854401763	43.429630313170	295.251126964960	1116.176288137285	1107.168785310553	88.370296946518	1348.600227538755	985.444798911313	82.920487717031	865.352661744608	1146.081483973733	696.990645760295	832.467170658374	886.166866178153	711.838759677363	
19	19.595285714286	832.687089432432	1007.981143314107	429.904747644750	1040.250695371458	1428.370359416199	245.651206511911	1122.566005744053	1366.143043219578	419.682362029322	1022.316972929785	1447.131665493507	580.645732040819	1003.383982462838	1495.680735695686	396.988894100858	1054.613709556928	946.137408013465	562.811117693390	1056.228482309120	962.743504523439	286.881916209893	1117.389113112223	761.974022823423	540.954414060693	1065.439652836460	646.551945200484	619.175175385553	1151.145057281563	599.513885175715	540.377758810214	1179.227252954848	523.343161505515	558.184879130165	1066.038344425863	738.278407038362	314.367495216075	954.639452607896	638.638054958569	249.073929981474	1020.447798851794	548.570387174660	312.119560143247	1008.045948448114	483.454264925429	320.715059476839	979.293541383903	415.285404947294	312.900246782254	882.081242866894	305.632707086288	263.180193894392	930.006857368650	192.378807752523	335.259544325030	1169.407303111153	439.314183516193	573.030966922351	1124.780568998636	325.710035437116	641.697086929090	1199.437633268001	242.611257556137	591.718758088394	1120.210464868352	51.365228735230	571.387154482317	1281.733997966069	130.545539217027	604.333591367557	1207.417929582398	52.391237773769	641.014769110873	1407.965763631320	97.482234592104	623.752666369163	798.813919762897	39.315360430212	383.590046861896	870.497112927997	34.836535816623	300.948494153817	954.537229841215	95.841030423150	325.781501113849	1082.555284266484	43.284292608849	295.283726129667	1116.990625605504	1106.356483062665	90.742274896385	1350.876994388612	987.698772204403	85.671859901361	863.817379291168	1146.733459681135	698.951753328120	829.738516104640	886.984650993723	714.010871598863	
20	19.608357142857	834.386532378281	1006.831098163481	431.542491041747	1040.899802268810	1427.676695930800	247.970740541958	1122.966588145477	1365.867384800234	422.277178663067	1021.937865903052	1446.632755971261	582.903110417121	1003.408362644700	1494.924877683783	399.236998675743	1056.010997462097	945.110786871456	565.200022119263	1058.461825199464	962.254151219459	289.207990000225	1119.345384412140	761.002199174740	543.477156357211	1065.100599258741	644.196051428004	618.915049526926	1152.487959199202	598.422932759751	541.666287744887	1179.484793603920	521.332695999573	558.484528368016	1066.310582371595	737.058464973016	316.350128934886	954.099468122360	638.409659719891	250.534555148715	1018.722413954978	547.746151526236	313.690669746759	1005.809234823740	482.574356779813	322.049310949721	976.476856147379	414.713119179704	313.998023811756	878.547333572040	305.929184532928	263.844398904507	925.499565552632	192.078183513746	335.592278410269	1168.220356965150	436.277089162869	572.071439318477	1120.512209590307	322.941810950041	638.767154328155	1194.063331430767	239.032578471534	588.992520798452	1111.548903051078	50.037690964043	566.158047557410	1273.788179454200	125.936089831742	601.323512482335	1197.664531778194	49.723149987413	637.159612487590	1399.115405635945	90.704998680619	622.598541908376	793.528204769817	39.297667034090	383.539598549715	865.223471523808	34.816215363460	300.945736357103	949.268450593240	95.801118503699	325.855314732634	1077.294701981983	43.133652227269	295.313438276389	1117.412483008484	1105.325952931519	93.463145343960	1352.419625901042	989.077816542022	88.713971504264	863.043858569195	1146.708158401994	701.149298287288	828.792446761507	886.994408640926	716.501201020393	
21	19.621428571429	836.298515112949	1005.553260444339	433.456173418574	1041.411673610114	1426.974214133831	250.479744568997	1123.335528112649	1365.635788151021	425.032819185726	1021.470490507020	1446.028635095854	585.364251611400	1003.308996384416	1494.114988938457	401.701603151910	1057.752650523073	944.072347183808	567.685841816719	1060.826421320197	961.742058498139	291.662213734251	1121.871909329000	759.982218093820	546.075684127286	1065.233635566659	641.839645146103	618.513980621721	1154.264095198954	597.335352359574	542.831528509805	1180.034294494952	519.017962259685	558.542430542384	1066.774030741826	735.792893321219	318.272523807404	953.739479466356	638.134985553014	252.118057517323	1017.319782461407	546.873959267413	315.233182616895	1003.964545203530	481.573418515815	323.378474963463	973.955071155274	414.040843901572	315.118088232271	875.154534317876	306.231815859075	264.600186112018	921.050720753846	191.706082651359	335.927744211717	1166.958297999013	432.806130481875	570.884349119358	1115.668469507592	320.045755063910	635.761233287102	1187.490289275469	234.907095388618	586.049533811009	1100.579212964489	48.675420933951	561.194613227629	1263.921015758368	120.659714035768	597.945726808944	1185.773103893322	46.905099782576	633.369763663880	1388.292853057131	82.821373456692	620.886007966265	788.227718805406	39.230865640127	383.478461805062	859.950651115459	34.757154589140	300.944553175972	943.994317569053	95.751346491764	325.925133476189	1072.050402730814	42.971580500805	295.336591541988	1117.452731510020	1104.084784408917	96.512967277493	1353.254245530594	989.558267512462	92.030547914201	863.031973683441	1146.005966456690	703.580603108211	829.586934256707	886.206529253563	719.289014467445	
22	19.634500000000	838.403527446050	1004.175258267533	435.638949144927	1041.796930263930	1426.276384928167	253.175354491705	1123.694405123405	1365.453291665440	427.941588132064	1020.957790866878	1445.328981496876	588.030800604825	1003.120974024390	1493.271505332438	404.381319798944	1059.818027627964	943.040958165587	570.238243947492	1063.297554099894	961.224685623224	294.231436958893	1124.801839049175	758.836798425797	548.681100553609	1065.743850710855	639.553834156432	618.090138731174	1156.247384334746	596.205588788035	543.852391321239	1180.678139641861	516.477623041056	558.378262534273	1067.479553750776	734.513216711616	320.104286264132	953.599150001415	637.817697882542	253.821867295843	1016.303282437990	545.959245831055	316.748409993661	1002.590736024317	480.442851144518	324.699816547481	971.787199907423	413.262768585153	316.264112401853	871.946605110332	306.546401673873	265.454634741104	916.687194620237	191.265318898870	336.274655495658	1165.624638044385	429.098814060968	569.597621154420	1110.609484590349	317.126453956957	632.913977937219	1180.270422656713	230.517246381496	583.074315309109	1088.338463621577	47.299635757735	556.779282523579	1253.004240349950	115.201273395749	594.373074339748	1172.842203282603	44.170299443857	629.850649561396	1376.476982188234	74.630900601695	618.663665796513	782.913236634214	39.136861909657	383.401893448020	854.684181906908	34.660584550426	300.945011497371	938.731573203834	95.689854369145	325.985320810517	1066.833388861165	42.789563488237	295.348853735550	1117.123961963508	1102.653691934933	99.875320993275	1353.397481062145	989.127530518961	95.601541337930	863.794142996629	1144.654396192708	706.241141051351	832.074586714321	884.666775201709	722.339295865729	
